<svg width="40" height="45" viewBox="0 0 40 45" fill="none" xmlns="http://www.w3.org/2000/svg">
<path fill-rule="evenodd" clip-rule="evenodd" d="M19.5519 44.6316L23.2807 42.4061V37.5942L37.7988 29.1046C38.0616 28.951 38.2973 28.755 38.4962 28.5246L38.7079 28.2795C39.1252 27.7962 39.4577 27.2456 39.6911 26.6513L39.7667 26.4588C39.9209 26.0665 40 25.6487 40 25.2272V11.6097L37.1733 9.74512L18.687 20.5204C18.4238 20.6738 18.1905 20.8736 17.9984 21.11L17.8633 21.2763C17.6268 21.5674 17.4292 21.888 17.2753 22.23L17.1883 22.4233C17.0417 22.7493 16.9658 23.1026 16.9658 23.46V43.0076L19.5519 44.6316ZM24.3445 24.2794C24.5558 24.0154 24.8125 23.7912 25.1026 23.6175L34.1061 18.2261V22.8744C34.1061 23.1346 34.049 23.8917 33.9257 24.1208C33.5062 24.8999 32.7012 25.3714 31.9413 25.8246L23.4009 30.9176V26.266C23.4009 26.0023 23.4623 25.7423 23.5802 25.5065L23.6542 25.3585C23.8457 24.9755 24.0771 24.6138 24.3445 24.2794Z" fill="#FFC917"/>
<path d="M8.42285 17.8504V38.1351L14.016 41.3486V22.9644C14.016 22.4545 14.089 21.9472 14.2329 21.458L14.3173 21.1712C14.514 20.5023 14.8817 19.8964 15.3842 19.4131C15.9136 18.904 16.5014 18.4595 17.1354 18.0887L34.2836 8.06055L28.7506 4.8125L9.46002 16.1161C9.25101 16.2386 9.06225 16.3936 8.90132 16.5747C8.74435 16.7513 8.62195 16.9564 8.54121 17.1784C8.46291 17.3938 8.42285 17.6212 8.42285 17.8504Z" fill="white"/>
<path d="M0 13.0379V33.3226L5.59315 36.5361V18.1519C5.59315 17.642 5.66619 17.1347 5.81006 16.6455L5.89442 16.3587C6.09111 15.6898 6.45886 15.0839 6.96136 14.6006C7.49075 14.0915 8.07859 13.647 8.71259 13.2762L25.8608 3.24805L20.3278 0L1.03716 11.3036C0.828155 11.4261 0.639399 11.5811 0.47847 11.7622C0.321503 11.9388 0.199099 12.1439 0.11836 12.3659C0.040056 12.5813 0 12.8087 0 13.0379Z" fill="#ECECEC"/>
</svg>
