<svg width="423" height="472" viewBox="0 0 423 472" fill="none" xmlns="http://www.w3.org/2000/svg">
<path fill-rule="evenodd" clip-rule="evenodd" d="M206.729 471.98L246.167 448.445V397.557L399.72 307.778C402.499 306.153 404.991 304.081 407.096 301.644L409.334 299.052C413.748 293.941 417.265 288.119 419.734 281.834L420.533 279.798C422.163 275.649 423 271.231 423 266.773V122.766L393.104 103.047L197.581 216.998C194.797 218.62 192.33 220.733 190.298 223.233L188.87 224.992C186.368 228.07 184.278 231.461 182.65 235.078L181.73 237.122C180.179 240.569 179.377 244.305 179.377 248.085V454.806L206.729 471.98ZM258.433 255.483C259.996 253.529 261.896 251.87 264.043 250.585L360.663 192.736V241.892C360.663 244.643 360.059 252.65 358.755 255.073C357.067 258.207 354.479 261.22 352.527 263.266C350.806 265.07 348.772 266.529 346.63 267.806L247.439 326.951V275.88C247.439 274.328 247.8 272.797 248.495 271.408L251.032 266.334C252.449 263.499 254.162 260.822 256.142 258.347L258.433 255.483Z" fill="#FFC917"/>
<path d="M89.0532 188.766V403.282L148.21 437.266V238.462C148.21 235.979 148.566 233.509 149.266 231.126L152.698 219.458C153.925 215.286 156.22 211.506 159.355 208.491L166.138 201.969C169.44 198.793 173.107 196.02 177.062 193.708L362.573 85.2366L304.052 50.8877L100.023 170.426C97.8122 171.722 95.8158 173.361 94.1138 175.275C92.4537 177.143 91.159 179.312 90.3051 181.66C89.4769 183.938 89.0532 186.343 89.0532 188.766Z" fill="#000814"/>
<path d="M0 137.879V352.395L59.1565 386.378V187.575C59.1565 185.091 59.5123 182.621 60.213 180.238L63.6449 168.57C64.872 164.398 67.1664 160.618 70.3013 157.604L77.0849 151.081C80.3872 147.906 84.0541 145.133 88.009 142.82L273.52 34.3489L214.999 0L10.9694 119.539C8.75898 120.834 6.76257 122.473 5.06055 124.388C3.40049 126.255 2.1058 128.424 1.25188 130.773C0.423672 133.05 0 135.455 0 137.879Z" fill="#353535"/>
</svg>
