<svg width="584" height="432" viewBox="0 0 584 432" fill="none" xmlns="http://www.w3.org/2000/svg">
<path d="M284.5 28.5C362.417 28.5 432.812 51.0576 483.638 87.3516C534.47 123.65 565.5 173.482 565.5 228.158C565.5 282.834 534.47 332.665 483.638 368.964C432.812 405.258 362.417 427.815 284.5 427.815C206.583 427.815 136.188 405.258 85.3623 368.964C34.5298 332.665 3.50012 282.834 3.5 228.158C3.5 173.482 34.5297 123.65 85.3623 87.3516C136.188 51.0576 206.583 28.5 284.5 28.5Z" stroke="#FFC917" stroke-width="7"/>
<path d="M299.5 3.5C377.417 3.5 447.812 26.0576 498.638 62.3516C549.47 98.6505 580.5 148.482 580.5 203.158C580.5 257.834 549.47 307.665 498.638 343.964C447.812 380.258 377.417 402.815 299.5 402.815C221.583 402.815 151.188 380.258 100.362 343.964C49.5298 307.665 18.5001 257.834 18.5 203.158C18.5 148.482 49.5297 98.6505 100.362 62.3516C151.188 26.0576 221.583 3.5 299.5 3.5Z" stroke="#FFC917" stroke-width="7"/>
</svg>
